# xmcd
# 
# Track frame offsets:
#     150
#     5638
#     20480
#     27780
#     39125
#     55118
#     74795
#     95525
#     109713
#     123549
#     130653
#     133775
#     146898
#     169243
#     183165
#     191865
#     197060
#     203122
#     210405
#     219450
#     241527
#     259545
#     277875
#     299198
#     314490
#     330493
# 
# Disc length: 4583
# 
# Revision: 4
# Processed by: cddbd v1.5.2PL0 Copyright (c) Steve Scherf et al.
# Submitted via: fre:ac v1.0.17
# 
DISCID=8a11e51a
DTITLE=Various Artist - ちょんまげ天国 in DEEP
DYEAR=0
DGENRE=Soundtrack
TTITLE0=サラウンド1 -  長屋の朝
TTITLE1=杉　良太郎 - 江戸の夜明け　『大江戸捜査網』
TTITLE2=ボニージャックス - 信兵衛長屋　『 ぶらり信兵衛・道場破り』
TTITLE3=パイオニア・オーケストラ - 船出の歌　『天下御免』
TTITLE4=内田　善郎 - 少女ひとり　『新十郎捕り物帖・快刀乱麻』
TTITLE5=三田村　邦彦 - 青春一気　『将軍家光忍び旅Ⅱ』
TTITLE6=真田　広之 - 誓い(JACのテーマ) 　『影の軍団Ⅲ』
TTITLE7=宮永　英一 - ジャンピング・モンキー 　『猿飛佐助』
TTITLE8=水原　弘 - 隠密大作戦　『弥次喜多隠密道中』
TTITLE9=サラウンド2 -  街道の昼
TTITLE10=サラウンド3 - 大江戸捜査網TVシーン
TTITLE11=たき　まさと - 燃えよ夕日　『大江戸捜査網』
TTITLE12=奥田　民生 - 陽　『新・半七捕物帳』
TTITLE13=杉　良太郎 - 燃える男　『右門捕物帖』
TTITLE14=津島　利章 - 鬼平犯科帳オープニングテーマ
TTITLE15=菊池　俊輔 - 荒野の素浪人オープニングテーマ
TTITLE16=木下　忠司 - 破れ傘刀舟・悪人狩りオープニングテーマ
TTITLE17=日暮し - 坂道　『長崎犯科帳』
TTITLE18=サラウンド4 -  小唄の夕べ～粋～
TTITLE19=勝　新太郎 - おてんとさん　『座頭市物語』
TTITLE20=天地　茂 - ふたりづれ　『江戸の牙』
TTITLE21=川谷　拓三 - 負犬の唄　『必殺からくり人』
TTITLE22=里見　浩太郎 - 夢がたり　『八百八町夢日記』
TTITLE23=小林　旭 - 夢ん中　『江戸プロフェッショナル・必殺商売人』
TTITLE24=杉　良太郎 - 明日の詩　『 新五捕物帳』
TTITLE25=サラウンド5 -  虫と蛙の饗宴
EXTD=
EXTT0=
EXTT1=
EXTT2=
EXTT3=
EXTT4=
EXTT5=
EXTT6=
EXTT7=
EXTT8=
EXTT9=
EXTT10=
EXTT11=
EXTT12=
EXTT13=
EXTT14=
EXTT15=
EXTT16=
EXTT17=
EXTT18=
EXTT19=
EXTT20=
EXTT21=
EXTT22=
EXTT23=
EXTT24=
EXTT25=
PLAYORDER=
